<svg width="1568" height="606" viewBox="0 0 1568 606" fill="none" xmlns="http://www.w3.org/2000/svg">
<g clip-path="url(#clip0_3_2)">
<path d="M735.411 41.2432C745.428 40.3001 755.763 43.7906 763.243 51.6387C769.531 58.2366 772.641 66.7019 772.628 75.1494C774.898 77.8723 777.067 80.9463 779 84.3252V47H789V100.097C790.198 97.7115 791.497 95.5036 792.872 93.543C793.475 92.6836 794.102 91.8592 794.751 91.0791C794.837 82.1805 798.391 73.3264 805.359 66.7207C813.321 59.1736 823.976 56.2323 834.037 57.8057C834.953 67.8252 831.435 78.1506 823.566 85.6094C816.776 92.0459 808.028 95.1281 799.359 94.9209C798.838 95.5482 798.311 96.2368 797.784 96.9883C795.536 100.194 793.426 104.304 791.683 108.933C790.628 111.733 789.721 114.689 789 117.709V148.847C800.919 123.458 821.358 104.884 844.01 91.4971C844.004 91.3321 844 91.1664 844 91C844 83.8203 849.82 78 857 78C860.007 78 862.772 79.0236 864.975 80.7373C899.053 65.5868 934.564 59.9459 953.756 59.0059L954.244 68.9941C936.151 69.8804 902.349 75.2375 869.911 89.4873C869.969 89.9836 870 90.4883 870 91C870 92.8666 869.605 94.6407 868.896 96.2451L909.775 129.337L906 134L865.271 101.029C863.499 102.493 861.332 103.495 858.953 103.854L853.984 173.428L848 173L852.974 103.363C851.2 102.786 849.592 101.838 848.245 100.61C818.955 118.131 794.822 144.249 789.29 182.644C789.347 183.04 789.403 183.439 789.456 183.838L789.118 183.882C789.077 184.191 789.039 184.5 789 184.811V248.027C790.757 244.688 792.672 241.799 794.54 239.493C794.347 232.349 796.866 225.129 802.15 219.513C808.351 212.923 816.986 210 825.345 210.821C826.571 219.029 824.16 227.697 818.032 234.21C812.968 239.592 806.28 242.527 799.444 242.975C795.476 247.754 790.962 255.973 789 265.71V310.873C794.912 297.153 802.446 287.313 807.315 282.406C805.856 280.305 805 277.752 805 275C805 267.82 810.82 262 818 262C818.373 262 818.742 262.016 819.106 262.047L842 201L847.618 203.106L824.811 263.925C826.575 265.012 828.06 266.51 829.133 268.284L858.471 258.388L850 203L855.931 202.093L864.242 256.44L909.082 241.314L911 247L865.163 262.462L868.931 287.093L863 288L859.392 264.409L830.962 274C830.987 274.33 831 274.664 831 275C831 275.944 830.898 276.864 830.707 277.751L855.914 291.755L853 297L828.107 283.171C825.724 286.115 822.083 288 818 288C816.516 288 815.091 287.751 813.763 287.293C807.63 293.051 792.844 312.328 789 340.336V424.337L803.386 401.44C803.401 401.45 803.416 401.459 803.431 401.469L857 313L862.133 316.107L808.241 405.108C808.592 405.424 808.937 405.747 809.274 406.076C860.133 356.064 929.451 341.495 964 339.681V326.838L959 329L927 255L932.507 252.618L964 325.444V194.003C963.73 193.89 963.465 193.769 963.205 193.639L936.201 228.088L931.479 224.386L958.595 189.793C957.748 188.665 957.08 187.395 956.635 186.024L925.427 186.574L925.999 224.911L920 225L919.428 186.681L866 187.623L865.895 181.624L919.338 180.681L919 158L924.999 157.91L925.337 180.575L956.147 180.032C956.308 178.973 956.597 177.956 956.997 176.997L931 154L934.976 149.506L960.547 172.127C961.572 171.248 962.735 170.524 964 169.996V78H974V169.996C978.698 171.955 982 176.592 982 182C982 187.408 978.698 192.044 974 194.003V349.404L969.097 349.499C937.799 350.104 866.386 363.312 815.421 414.062C816.188 415.423 816.867 416.837 817.452 418.299C878.135 375.645 955.348 364.689 992.5 364.462V95H982V85H1002.5V113H1027.5V398.688L1022.32 398.497C985.038 397.124 940.8 405.066 900.521 415.66C868.518 424.078 839.252 434.106 818.33 442.255C816.158 449.087 811.966 455.113 806.29 459.526C800.26 464.214 792.879 466.832 785.243 466.992C777.607 467.152 770.123 464.845 763.902 460.414C757.706 456 753.093 449.711 750.741 442.478C729.782 434.289 700.274 424.155 667.979 415.66C627.7 405.066 583.462 397.124 546.185 398.497L541 398.688V113H566V85H586.5V95H576V364.462C613.232 364.69 690.696 375.692 751.438 418.573C752.002 417.13 752.658 415.731 753.4 414.383C702.415 363.367 630.767 350.105 599.403 349.499L594.5 349.404V188.78C590.07 186.708 587 182.214 587 177C587 171.786 590.07 167.291 594.5 165.219V78H604.5V164.8C605.505 165.17 606.451 165.662 607.321 166.256L635.191 143.363L639 148L611.37 170.695C611.94 171.72 612.375 172.83 612.651 174.001L644.027 174.026L645 152L650.994 152.265L650.033 174.03L699.005 174.07L699 180.07L649.769 180.03L647.994 220.265L642 220L643.763 180.025L612.65 180.001C612.201 181.903 611.331 183.641 610.148 185.118L637.723 220.299L633 224L605.424 188.816C605.122 188.955 604.814 189.083 604.5 189.199V323.191L635.459 248.697L641 251L609 328L604.5 326.13V339.681C639.106 341.498 708.594 356.112 759.475 406.321C759.548 406.248 759.623 406.176 759.697 406.104L704.817 312.023L710 309L764.558 402.527L779 423.509V372.789C777.505 366.462 775.09 360.554 772.352 355.41C771.325 353.482 770.256 351.671 769.184 349.996C760.146 349.931 751.148 346.326 744.439 339.234C736.799 331.157 733.823 320.349 735.416 310.144C745.558 309.215 756.01 312.784 763.561 320.766C769.966 327.538 773.092 336.23 772.996 344.878C774.574 347.196 776.154 349.782 777.648 352.59C778.107 353.452 778.558 354.337 779 355.242V303.001C778.109 300.209 776.952 297.098 775.562 293.721C773.692 289.18 771.424 284.209 768.872 278.949L716 295L714.257 289.259L760.504 275.219L707.16 257.762L703.942 280.829L698 280L701.367 255.865L659 242L660.866 236.298L702.21 249.828L710 194L715.942 194.829L708.003 251.724L764.517 270.22C763 267.253 761.418 264.225 759.788 261.158C747.163 237.405 731.856 211.651 721.887 193.974L727.113 191.026C736.977 208.516 752.421 234.512 765.087 258.342C770.38 268.301 775.223 277.947 779 286.501V236.705C778.349 231.261 777.265 226.27 775.889 221.901C773.933 215.693 771.474 211.006 769.03 207.996C763.516 207.684 758.091 205.422 753.883 201.205C748.582 195.893 746.384 188.658 747.283 181.75C754.119 180.948 761.243 183.172 766.481 188.422C770.715 192.665 772.967 198.134 773.245 203.683C775.385 206.182 777.326 209.416 779 213.164V181.552C772.495 142.602 746.705 116.294 716.149 98.8574C715.192 99.4892 714.146 99.9977 713.034 100.36L716.834 159.702L710.846 160.085L707.055 100.854C704.805 100.517 702.746 99.6003 701.028 98.2647L665.764 126.673L662 122L697.262 93.5938C696.568 92.1415 696.138 90.5405 696.028 88.8516C664.397 75.1851 631.91 69.8589 614.256 68.9941L614.744 59.0059C633.226 59.9111 666.575 65.3649 699.282 79.3672C701.663 76.6886 705.134 75 709 75C716.18 75 722 80.8203 722 88C722 88.871 721.913 89.7219 721.75 90.5449C745.134 104.017 766.471 122.851 779 148.72V99.5811C776.87 92.1671 773.26 85.6608 769.188 80.4385C760.156 80.4809 751.127 76.9509 744.403 69.8965C736.834 61.9548 733.865 51.3084 735.411 41.2432ZM551 388.37C588.547 387.81 631.684 395.774 670.521 405.989C700.53 413.882 728.176 423.177 749.003 431.093C749.01 430.461 749.034 429.829 749.075 429.198C687.376 383.853 605.38 373.71 571.115 374.499L566 374.616V123H551V388.37ZM1002.5 374.616L997.385 374.499C963.208 373.712 881.544 383.8 819.899 428.849C819.951 429.533 819.982 430.218 819.993 430.904C840.762 423.029 868.208 413.82 897.979 405.989C936.816 395.774 979.953 387.81 1017.5 388.37V123H1002.5V374.616ZM955.346 332.478L953 338L880 307L882.346 301.478L955.346 332.478ZM685 305L617 337L614.445 331.571L682.445 299.571L685 305ZM915.46 254.014L879.46 294.014L875 290L911 250L915.46 254.014ZM689.538 282.075L685 286L653 249L657.538 245.075L689.538 282.075ZM913.855 228.855L910.26 233.657L861.74 197.343L865.335 192.539L913.855 228.855ZM704.811 189.635L659.811 226.635L656 222L701 185L704.811 189.635ZM910 151L864 181L860.723 175.975L906.723 145.975L910 151ZM702.359 166.028L699 171L662 146L665.359 141.028L702.359 166.028ZM962 78L930 130L924.89 126.855L956.891 74.8555L962 78ZM642.926 119.574L638 123L606 77L610.926 73.5732L642.926 119.574Z" fill="url(#paint0_radial_3_2)"/>
<path d="M600 323C609.941 323 618 331.059 618 341C618 350.941 609.941 359 600 359C590.059 359 582 350.941 582 341C582 331.059 590.059 323 600 323ZM968.5 323C978.441 323 986.5 331.059 986.5 341C986.5 350.941 978.441 359 968.5 359C958.559 359 950.5 350.941 950.5 341C950.5 331.059 958.559 323 968.5 323ZM868 284C877.941 284 886 292.059 886 302C886 311.941 877.941 320 868 320C858.059 320 850 311.941 850 302C850 292.059 858.059 284 868 284ZM699 279C708.941 279 717 287.059 717 297C717 306.941 708.941 315 699 315C689.059 315 681 306.941 681 297C681 287.059 689.059 279 699 279ZM924 222C933.941 222 942 230.059 942 240C942 249.941 933.941 258 924 258C914.059 258 906 249.941 906 240C906 230.059 914.059 222 924 222ZM644 217C653.941 217 662 225.059 662 235C662 244.941 653.941 253 644 253C634.059 253 626 244.941 626 235C626 225.059 634.059 217 644 217ZM850 169C859.941 169 868 177.059 868 187C868 196.941 859.941 205 850 205C840.059 205 832 196.941 832 187C832 177.059 840.059 169 850 169ZM716 159C725.941 159 734 167.059 734 177C734 186.941 725.941 195 716 195C706.059 195 698 186.941 698 177C698 167.059 706.059 159 716 159ZM921 123C930.941 123 939 131.059 939 141C939 150.941 930.941 159 921 159C911.059 159 903 150.941 903 141C903 131.059 911.059 123 921 123ZM650 117C659.941 117 668 125.059 668 135C668 144.941 659.941 153 650 153C640.059 153 632 144.941 632 135C632 125.059 640.059 117 650 117ZM599 44C608.941 44 617 52.0589 617 62C617 71.9411 608.941 80 599 80C589.059 80 581 71.9411 581 62C581 52.0589 589.059 44 599 44ZM969.5 44C979.441 44 987.5 52.0589 987.5 62C987.5 71.9411 979.441 80 969.5 80C959.559 80 951.5 71.9411 951.5 62C951.5 52.0589 959.559 44 969.5 44ZM784 13C793.941 13 802 21.0589 802 31C802 40.9411 793.941 49 784 49C774.059 49 766 40.9411 766 31C766 21.0589 774.059 13 784 13Z" fill="#C2E6C0"/>
<path d="M812.39 76.8432C813.237 77.6631 807.909 84.5465 800.489 92.2181C799.485 93.2554 798.494 94.2533 797.53 95.2026C795.923 96.3832 794.843 96.9275 794.535 96.6303C793.688 95.8106 799.015 88.9265 806.435 81.2547C807.439 80.2167 808.432 79.2188 809.397 78.2688C811.003 77.0892 812.082 76.5456 812.39 76.8432Z" fill="#C2E6C0"/>
<path d="M411.872 540.288L391.496 489.528H405.608L417.992 523.512L430.304 489.528H444.2L423.824 540.288H411.872ZM476.596 541.008C472.66 541.008 469.059 540.336 465.795 538.992C462.531 537.6 459.675 535.728 457.227 533.376C454.827 530.976 452.955 528.192 451.611 525.024C450.267 521.808 449.595 518.4 449.595 514.8C449.595 511.152 450.267 507.744 451.611 504.576C453.003 501.408 454.899 498.624 457.299 496.224C459.747 493.824 462.603 491.952 465.867 490.608C469.179 489.216 472.78 488.52 476.668 488.52C480.556 488.52 484.131 489.192 487.395 490.536C490.707 491.88 493.563 493.776 495.964 496.224C498.364 498.624 500.236 501.408 501.58 504.576C502.972 507.696 503.668 511.056 503.668 514.656C503.668 518.352 502.948 521.808 501.508 525.024C500.115 528.192 498.171 530.976 495.675 533.376C493.227 535.776 490.371 537.648 487.107 538.992C483.843 540.336 480.339 541.008 476.596 541.008ZM476.668 529.56C479.451 529.56 481.899 528.888 484.011 527.544C486.124 526.152 487.756 524.352 488.908 522.144C490.06 519.888 490.636 517.44 490.636 514.8C490.636 512.784 490.3 510.888 489.628 509.112C488.956 507.336 487.996 505.776 486.747 504.432C485.5 503.04 484.012 501.96 482.284 501.192C480.604 500.376 478.708 499.968 476.596 499.968C473.811 499.968 471.363 500.64 469.251 501.984C467.139 503.28 465.507 505.056 464.355 507.312C463.203 509.52 462.627 511.968 462.627 514.656C462.627 517.296 463.203 519.768 464.355 522.072C465.556 524.328 467.212 526.152 469.324 527.544C471.436 528.888 473.884 529.56 476.668 529.56ZM538.883 541.008C535.283 541.008 531.899 540.36 528.731 539.064C525.611 537.768 522.851 535.944 520.451 533.592C518.099 531.192 516.251 528.408 514.907 525.24C513.563 522.024 512.891 518.544 512.891 514.8C512.891 511.104 513.539 507.672 514.835 504.504C516.179 501.336 518.051 498.552 520.451 496.152C522.851 493.752 525.659 491.88 528.875 490.536C532.139 489.192 535.667 488.52 539.459 488.52C542.627 488.52 545.459 488.952 547.955 489.816C550.451 490.632 552.707 491.736 554.723 493.128V506.16C553.043 504.384 550.979 502.92 548.531 501.768C546.131 500.616 543.443 500.04 540.467 500.04C537.443 500.04 534.851 500.712 532.691 502.056C530.531 503.352 528.875 505.104 527.723 507.312C526.571 509.52 525.995 511.968 525.995 514.656C525.995 517.392 526.571 519.888 527.723 522.144C528.875 524.4 530.531 526.2 532.691 527.544C534.851 528.84 537.443 529.488 540.467 529.488C542.339 529.488 544.115 529.248 545.795 528.768C547.475 528.24 549.083 527.496 550.619 526.536C552.203 525.528 553.715 524.352 555.155 523.008V535.824C552.803 537.504 550.307 538.8 547.667 539.712C545.075 540.576 542.147 541.008 538.883 541.008ZM561.482 540L583.082 489.24H595.178L616.778 540H603.17L599.066 530.136H578.906L574.874 540H561.482ZM582.65 520.2H595.322L589.058 504.216L582.65 520.2ZM624.262 540V489.528H648.094C651.55 489.528 654.55 490.032 657.094 491.04C659.686 492 661.702 493.416 663.142 495.288C664.582 497.16 665.302 499.464 665.302 502.2C665.302 505.128 664.606 507.528 663.214 509.4C661.822 511.272 659.95 512.688 657.598 513.648C660.862 514.512 663.406 515.952 665.23 517.968C667.054 519.936 667.966 522.6 667.966 525.96C667.966 528.792 667.222 531.264 665.734 533.376C664.246 535.488 662.062 537.12 659.182 538.272C656.302 539.424 652.75 540 648.526 540H624.262ZM636.574 529.776H647.446C649.99 529.776 651.934 529.296 653.278 528.336C654.622 527.376 655.294 526.032 655.294 524.304C655.294 522.672 654.622 521.4 653.278 520.488C651.934 519.528 649.822 519.048 646.942 519.048H636.574V529.776ZM636.574 509.976H645.358C647.758 509.976 649.558 509.52 650.758 508.608C652.006 507.696 652.63 506.424 652.63 504.792C652.63 503.16 652.03 501.912 650.83 501.048C649.63 500.184 647.902 499.752 645.646 499.752H636.574V509.976ZM702.408 540V489.528H726.24C729.696 489.528 732.696 490.032 735.24 491.04C737.832 492 739.848 493.416 741.288 495.288C742.728 497.16 743.448 499.464 743.448 502.2C743.448 505.128 742.752 507.528 741.36 509.4C739.968 511.272 738.096 512.688 735.744 513.648C739.008 514.512 741.552 515.952 743.376 517.968C745.2 519.936 746.112 522.6 746.112 525.96C746.112 528.792 745.368 531.264 743.88 533.376C742.392 535.488 740.208 537.12 737.328 538.272C734.448 539.424 730.896 540 726.672 540H702.408ZM714.72 529.776H725.592C728.136 529.776 730.08 529.296 731.424 528.336C732.768 527.376 733.44 526.032 733.44 524.304C733.44 522.672 732.768 521.4 731.424 520.488C730.08 519.528 727.968 519.048 725.088 519.048H714.72V529.776ZM714.72 509.976H723.504C725.904 509.976 727.704 509.52 728.904 508.608C730.152 507.696 730.776 506.424 730.776 504.792C730.776 503.16 730.176 501.912 728.976 501.048C727.776 500.184 726.048 499.752 723.792 499.752H714.72V509.976ZM756.773 540V489.528H769.445V528.912H793.925V540H756.773ZM828.045 541.008C824.109 541.008 820.509 540.336 817.245 538.992C813.981 537.6 811.125 535.728 808.677 533.376C806.277 530.976 804.405 528.192 803.061 525.024C801.717 521.808 801.045 518.4 801.045 514.8C801.045 511.152 801.717 507.744 803.061 504.576C804.453 501.408 806.349 498.624 808.749 496.224C811.197 493.824 814.053 491.952 817.317 490.608C820.629 489.216 824.229 488.52 828.117 488.52C832.005 488.52 835.581 489.192 838.845 490.536C842.157 491.88 845.013 493.776 847.413 496.224C849.813 498.624 851.685 501.408 853.029 504.576C854.421 507.696 855.117 511.056 855.117 514.656C855.117 518.352 854.397 521.808 852.957 525.024C851.565 528.192 849.621 530.976 847.125 533.376C844.677 535.776 841.821 537.648 838.557 538.992C835.293 540.336 831.789 541.008 828.045 541.008ZM828.117 529.56C830.901 529.56 833.349 528.888 835.461 527.544C837.573 526.152 839.205 524.352 840.357 522.144C841.509 519.888 842.085 517.44 842.085 514.8C842.085 512.784 841.749 510.888 841.077 509.112C840.405 507.336 839.445 505.776 838.197 504.432C836.949 503.04 835.461 501.96 833.733 501.192C832.053 500.376 830.157 499.968 828.045 499.968C825.261 499.968 822.813 500.64 820.701 501.984C818.589 503.28 816.957 505.056 815.805 507.312C814.653 509.52 814.077 511.968 814.077 514.656C814.077 517.296 814.653 519.768 815.805 522.072C817.005 524.328 818.661 526.152 820.773 527.544C822.885 528.888 825.333 529.56 828.117 529.56ZM891.341 541.008C887.405 541.008 883.805 540.336 880.541 538.992C877.277 537.6 874.421 535.728 871.973 533.376C869.573 530.976 867.701 528.192 866.357 525.024C865.013 521.808 864.341 518.4 864.341 514.8C864.341 511.152 865.013 507.744 866.357 504.576C867.749 501.408 869.645 498.624 872.045 496.224C874.493 493.824 877.349 491.952 880.613 490.608C883.925 489.216 887.525 488.52 891.413 488.52C895.301 488.52 898.877 489.192 902.141 490.536C905.453 491.88 908.309 493.776 910.709 496.224C913.109 498.624 914.981 501.408 916.325 504.576C917.717 507.696 918.413 511.056 918.413 514.656C918.413 518.352 917.693 521.808 916.253 525.024C914.861 528.192 912.917 530.976 910.421 533.376C907.973 535.776 905.117 537.648 901.853 538.992C898.589 540.336 895.085 541.008 891.341 541.008ZM891.413 529.56C894.197 529.56 896.645 528.888 898.757 527.544C900.869 526.152 902.501 524.352 903.653 522.144C904.805 519.888 905.381 517.44 905.381 514.8C905.381 512.784 905.045 510.888 904.373 509.112C903.701 507.336 902.741 505.776 901.493 504.432C900.245 503.04 898.757 501.96 897.029 501.192C895.349 500.376 893.453 499.968 891.341 499.968C888.557 499.968 886.109 500.64 883.997 501.984C881.885 503.28 880.253 505.056 879.101 507.312C877.949 509.52 877.373 511.968 877.373 514.656C877.373 517.296 877.949 519.768 879.101 522.072C880.301 524.328 881.957 526.152 884.069 527.544C886.181 528.888 888.629 529.56 891.413 529.56ZM926.268 540V489.6H939.516L952.836 510.912L966.156 489.6H979.476V540H966.876V509.112L952.764 530.496L938.652 509.184V540H926.268ZM1012.78 540V489.528H1025.38V508.968H1044.97V489.528H1057.57V540H1044.97V520.2H1025.38V540H1012.78ZM1092.49 540.936C1087.74 540.936 1083.66 540.096 1080.25 538.416C1076.84 536.736 1074.23 534.216 1072.4 530.856C1070.58 527.448 1069.67 523.224 1069.67 518.184V489.528H1082.48V517.896C1082.48 521.784 1083.37 524.688 1085.15 526.608C1086.92 528.528 1089.42 529.488 1092.63 529.488C1095.75 529.488 1098.2 528.6 1099.98 526.824C1101.8 525 1102.71 522.12 1102.71 518.184V489.528H1115.53V517.824C1115.53 523.104 1114.59 527.448 1112.72 530.856C1110.85 534.264 1108.19 536.808 1104.73 538.488C1101.32 540.12 1097.24 540.936 1092.49 540.936ZM1127.7 540V489.528H1151.53C1154.99 489.528 1157.99 490.032 1160.53 491.04C1163.12 492 1165.14 493.416 1166.58 495.288C1168.02 497.16 1168.74 499.464 1168.74 502.2C1168.74 505.128 1168.04 507.528 1166.65 509.4C1165.26 511.272 1163.39 512.688 1161.04 513.648C1164.3 514.512 1166.84 515.952 1168.67 517.968C1170.49 519.936 1171.4 522.6 1171.4 525.96C1171.4 528.792 1170.66 531.264 1169.17 533.376C1167.68 535.488 1165.5 537.12 1162.62 538.272C1159.74 539.424 1156.19 540 1151.96 540H1127.7ZM1140.01 529.776H1150.88C1153.43 529.776 1155.37 529.296 1156.72 528.336C1158.06 527.376 1158.73 526.032 1158.73 524.304C1158.73 522.672 1158.06 521.4 1156.72 520.488C1155.37 519.528 1153.26 519.048 1150.38 519.048H1140.01V529.776ZM1140.01 509.976H1148.8C1151.2 509.976 1153 509.52 1154.2 508.608C1155.44 507.696 1156.07 506.424 1156.07 504.792C1156.07 503.16 1155.47 501.912 1154.27 501.048C1153.07 500.184 1151.34 499.752 1149.08 499.752H1140.01V509.976Z" fill="black"/>
<path d="M491.125 586H488.898L497.364 562.727H499.636L508.102 586H505.875L498.58 565.489H498.42L491.125 586ZM492.727 577.08H504.273V578.989H492.727V577.08ZM515.293 575.091V586H513.27V568.545H515.236V571.284H515.418C515.827 570.39 516.464 569.674 517.327 569.136C518.198 568.591 519.274 568.318 520.555 568.318C521.729 568.318 522.759 568.564 523.645 569.057C524.539 569.542 525.233 570.258 525.725 571.205C526.225 572.152 526.475 573.314 526.475 574.693V586H524.452V574.818C524.452 573.386 524.051 572.254 523.248 571.42C522.452 570.587 521.384 570.17 520.043 570.17C519.127 570.17 518.312 570.367 517.6 570.761C516.888 571.155 516.323 571.723 515.907 572.466C515.498 573.201 515.293 574.076 515.293 575.091ZM563.502 574.364C563.502 576.788 563.07 578.898 562.206 580.693C561.343 582.481 560.153 583.867 558.638 584.852C557.13 585.83 555.396 586.318 553.434 586.318C551.471 586.318 549.733 585.83 548.218 584.852C546.71 583.867 545.524 582.481 544.661 580.693C543.805 578.898 543.377 576.788 543.377 574.364C543.377 571.939 543.805 569.833 544.661 568.045C545.524 566.25 546.714 564.864 548.229 563.886C549.744 562.902 551.479 562.409 553.434 562.409C555.396 562.409 557.13 562.902 558.638 563.886C560.153 564.864 561.343 566.25 562.206 568.045C563.07 569.833 563.502 571.939 563.502 574.364ZM561.434 574.364C561.434 572.28 561.085 570.496 560.388 569.011C559.691 567.519 558.74 566.379 557.536 565.591C556.331 564.803 554.964 564.409 553.434 564.409C551.911 564.409 550.547 564.803 549.343 565.591C548.138 566.379 547.184 567.515 546.479 569C545.782 570.485 545.434 572.273 545.434 574.364C545.434 576.447 545.782 578.231 546.479 579.716C547.176 581.201 548.127 582.341 549.331 583.136C550.536 583.924 551.903 584.318 553.434 584.318C554.964 584.318 556.331 583.924 557.536 583.136C558.748 582.348 559.702 581.212 560.399 579.727C561.096 578.235 561.441 576.447 561.434 574.364ZM569.82 592.545V568.545H571.786V571.875H572.025C572.267 571.352 572.601 570.818 573.025 570.273C573.449 569.72 574.01 569.254 574.707 568.875C575.411 568.496 576.298 568.307 577.366 568.307C578.805 568.307 580.063 568.686 581.139 569.443C582.222 570.193 583.063 571.246 583.661 572.602C584.267 573.951 584.57 575.523 584.57 577.318C584.57 579.121 584.267 580.701 583.661 582.057C583.063 583.413 582.222 584.47 581.139 585.227C580.063 585.985 578.813 586.364 577.389 586.364C576.336 586.364 575.453 586.174 574.741 585.795C574.036 585.417 573.464 584.951 573.025 584.398C572.593 583.837 572.26 583.292 572.025 582.761H571.843V592.545H569.82ZM571.82 577.284C571.82 578.693 572.029 579.943 572.445 581.034C572.87 582.117 573.476 582.97 574.264 583.591C575.059 584.205 576.021 584.511 577.15 584.511C578.309 584.511 579.286 584.193 580.082 583.557C580.885 582.913 581.495 582.045 581.911 580.955C582.336 579.864 582.548 578.64 582.548 577.284C582.548 575.943 582.339 574.735 581.923 573.659C581.514 572.583 580.908 571.731 580.105 571.102C579.302 570.466 578.317 570.148 577.15 570.148C576.014 570.148 575.048 570.455 574.252 571.068C573.457 571.674 572.851 572.515 572.434 573.591C572.025 574.659 571.82 575.89 571.82 577.284ZM597.665 586.364C596.036 586.364 594.627 585.985 593.438 585.227C592.248 584.462 591.328 583.405 590.676 582.057C590.032 580.701 589.71 579.14 589.71 577.375C589.71 575.617 590.032 574.057 590.676 572.693C591.328 571.322 592.225 570.25 593.369 569.477C594.521 568.697 595.85 568.307 597.358 568.307C598.305 568.307 599.218 568.481 600.097 568.83C600.975 569.17 601.763 569.697 602.46 570.409C603.165 571.114 603.722 572.004 604.131 573.08C604.54 574.148 604.744 575.413 604.744 576.875V577.875H591.108V576.091H602.676C602.676 574.97 602.449 573.962 601.994 573.068C601.547 572.167 600.922 571.455 600.119 570.932C599.324 570.409 598.403 570.148 597.358 570.148C596.252 570.148 595.278 570.443 594.438 571.034C593.597 571.625 592.938 572.405 592.46 573.375C591.991 574.345 591.752 575.405 591.744 576.557V577.625C591.744 579.011 591.983 580.223 592.46 581.261C592.945 582.292 593.631 583.091 594.517 583.659C595.403 584.227 596.453 584.511 597.665 584.511C598.491 584.511 599.214 584.383 599.835 584.125C600.464 583.867 600.991 583.523 601.415 583.091C601.847 582.652 602.172 582.17 602.392 581.648L604.312 582.273C604.047 583.008 603.612 583.686 603.006 584.307C602.407 584.928 601.657 585.428 600.756 585.807C599.862 586.178 598.831 586.364 597.665 586.364ZM612.824 575.091V586H610.802V568.545H612.768V571.284H612.949C613.359 570.39 613.995 569.674 614.859 569.136C615.73 568.591 616.805 568.318 618.086 568.318C619.26 568.318 620.29 568.564 621.177 569.057C622.071 569.542 622.764 570.258 623.256 571.205C623.756 572.152 624.006 573.314 624.006 574.693V586H621.984V574.818C621.984 573.386 621.582 572.254 620.779 571.42C619.984 570.587 618.915 570.17 617.574 570.17C616.658 570.17 615.843 570.367 615.131 570.761C614.419 571.155 613.855 571.723 613.438 572.466C613.029 573.201 612.824 574.076 612.824 575.091ZM640.353 575.068V576.977H630.672V575.068H640.353ZM660.09 568.545C659.961 567.25 659.389 566.22 658.374 565.455C657.359 564.689 656.082 564.307 654.544 564.307C653.461 564.307 652.506 564.492 651.681 564.864C650.863 565.235 650.219 565.75 649.749 566.409C649.287 567.061 649.056 567.803 649.056 568.636C649.056 569.25 649.188 569.788 649.453 570.25C649.719 570.712 650.075 571.11 650.522 571.443C650.976 571.769 651.476 572.049 652.022 572.284C652.575 572.519 653.131 572.716 653.692 572.875L656.147 573.58C656.889 573.784 657.631 574.045 658.374 574.364C659.116 574.682 659.794 575.083 660.408 575.568C661.029 576.045 661.525 576.633 661.897 577.33C662.275 578.019 662.465 578.848 662.465 579.818C662.465 581.061 662.143 582.178 661.499 583.17C660.855 584.163 659.931 584.951 658.726 585.534C657.522 586.11 656.078 586.398 654.397 586.398C652.813 586.398 651.438 586.136 650.272 585.614C649.105 585.083 648.188 584.352 647.522 583.42C646.855 582.489 646.48 581.409 646.397 580.182H648.578C648.654 581.098 648.957 581.875 649.488 582.511C650.018 583.148 650.707 583.633 651.556 583.966C652.404 584.292 653.351 584.455 654.397 584.455C655.556 584.455 656.586 584.261 657.488 583.875C658.397 583.481 659.109 582.936 659.624 582.239C660.147 581.534 660.408 580.716 660.408 579.784C660.408 578.996 660.203 578.337 659.794 577.807C659.385 577.269 658.813 576.818 658.078 576.455C657.351 576.091 656.506 575.769 655.544 575.489L652.76 574.67C650.934 574.125 649.518 573.371 648.51 572.409C647.503 571.447 646.999 570.22 646.999 568.727C646.999 567.477 647.332 566.379 647.999 565.432C648.673 564.477 649.582 563.735 650.726 563.205C651.878 562.667 653.169 562.398 654.601 562.398C656.048 562.398 657.328 562.663 658.442 563.193C659.556 563.723 660.438 564.455 661.09 565.386C661.749 566.311 662.101 567.364 662.147 568.545H660.09ZM675.542 586.364C674.034 586.364 672.701 585.981 671.542 585.216C670.391 584.451 669.489 583.394 668.837 582.045C668.186 580.689 667.86 579.125 667.86 577.352C667.86 575.564 668.186 573.992 668.837 572.636C669.489 571.273 670.391 570.212 671.542 569.455C672.701 568.689 674.034 568.307 675.542 568.307C677.05 568.307 678.379 568.689 679.531 569.455C680.682 570.22 681.584 571.28 682.235 572.636C682.894 573.992 683.224 575.564 683.224 577.352C683.224 579.125 682.898 580.689 682.247 582.045C681.595 583.394 680.69 584.451 679.531 585.216C678.379 585.981 677.05 586.364 675.542 586.364ZM675.542 584.511C676.754 584.511 677.781 584.186 678.622 583.534C679.462 582.883 680.099 582.015 680.531 580.932C680.97 579.848 681.19 578.655 681.19 577.352C681.19 576.049 680.97 574.852 680.531 573.761C680.099 572.67 679.462 571.795 678.622 571.136C677.781 570.477 676.754 570.148 675.542 570.148C674.337 570.148 673.311 570.477 672.462 571.136C671.622 571.795 670.981 572.67 670.542 573.761C670.11 574.852 669.894 576.049 669.894 577.352C669.894 578.655 670.11 579.848 670.542 580.932C670.981 582.015 671.622 582.883 672.462 583.534C673.303 584.186 674.33 584.511 675.542 584.511ZM700.355 579.33V568.545H702.378V586H700.355V583.102H700.196C699.787 583.996 699.139 584.742 698.253 585.341C697.366 585.932 696.283 586.227 695.003 586.227C693.889 586.227 692.901 585.985 692.037 585.5C691.173 585.008 690.495 584.288 690.003 583.341C689.51 582.394 689.264 581.231 689.264 579.852V568.545H691.287V579.727C691.287 581.091 691.688 582.189 692.491 583.023C693.295 583.848 694.325 584.261 695.582 584.261C696.37 584.261 697.128 584.072 697.855 583.693C698.582 583.314 699.181 582.761 699.651 582.034C700.12 581.299 700.355 580.398 700.355 579.33ZM709.333 586V568.545H711.299V571.227H711.447C711.795 570.348 712.401 569.64 713.265 569.102C714.136 568.557 715.121 568.284 716.219 568.284C716.386 568.284 716.572 568.288 716.776 568.295C716.981 568.303 717.151 568.311 717.288 568.318V570.375C717.197 570.36 717.038 570.337 716.81 570.307C716.583 570.277 716.337 570.261 716.072 570.261C715.163 570.261 714.352 570.455 713.64 570.841C712.935 571.22 712.378 571.746 711.969 572.42C711.56 573.095 711.356 573.864 711.356 574.727V586H709.333ZM728.626 586.364C727.066 586.364 725.706 585.973 724.547 585.193C723.395 584.413 722.501 583.345 721.865 581.989C721.228 580.633 720.91 579.087 720.91 577.352C720.91 575.602 721.232 574.045 721.876 572.682C722.528 571.318 723.429 570.25 724.581 569.477C725.732 568.697 727.069 568.307 728.592 568.307C729.759 568.307 730.816 568.534 731.762 568.989C732.709 569.436 733.49 570.068 734.103 570.886C734.725 571.697 735.115 572.644 735.274 573.727H733.228C733.016 572.742 732.505 571.902 731.694 571.205C730.891 570.5 729.869 570.148 728.626 570.148C727.512 570.148 726.528 570.451 725.672 571.057C724.816 571.655 724.145 572.492 723.66 573.568C723.183 574.636 722.944 575.875 722.944 577.284C722.944 578.701 723.179 579.955 723.649 581.045C724.119 582.129 724.778 582.977 725.626 583.591C726.482 584.205 727.482 584.511 728.626 584.511C729.399 584.511 730.103 584.367 730.74 584.08C731.384 583.784 731.922 583.367 732.353 582.83C732.793 582.292 733.088 581.652 733.24 580.909H735.285C735.134 581.962 734.759 582.902 734.16 583.727C733.569 584.545 732.8 585.189 731.853 585.659C730.914 586.129 729.838 586.364 728.626 586.364ZM748.277 586.364C746.648 586.364 745.239 585.985 744.05 585.227C742.861 584.462 741.94 583.405 741.289 582.057C740.645 580.701 740.323 579.14 740.323 577.375C740.323 575.617 740.645 574.057 741.289 572.693C741.94 571.322 742.838 570.25 743.982 569.477C745.133 568.697 746.463 568.307 747.97 568.307C748.917 568.307 749.83 568.481 750.709 568.83C751.588 569.17 752.376 569.697 753.073 570.409C753.777 571.114 754.334 572.004 754.743 573.08C755.152 574.148 755.357 575.413 755.357 576.875V577.875H741.72V576.091H753.289C753.289 574.97 753.061 573.962 752.607 573.068C752.16 572.167 751.535 571.455 750.732 570.932C749.936 570.409 749.016 570.148 747.97 570.148C746.864 570.148 745.891 570.443 745.05 571.034C744.209 571.625 743.55 572.405 743.073 573.375C742.603 574.345 742.364 575.405 742.357 576.557V577.625C742.357 579.011 742.595 580.223 743.073 581.261C743.558 582.292 744.243 583.091 745.13 583.659C746.016 584.227 747.065 584.511 748.277 584.511C749.103 584.511 749.827 584.383 750.448 584.125C751.077 583.867 751.603 583.523 752.027 583.091C752.459 582.652 752.785 582.17 753.005 581.648L754.925 582.273C754.66 583.008 754.224 583.686 753.618 584.307C753.02 584.928 752.27 585.428 751.368 585.807C750.474 586.178 749.444 586.364 748.277 586.364ZM772.435 586V562.727H774.56V584.091H785.651V586H772.435ZM791.637 586V568.545H793.671V586H791.637ZM792.671 565.545C792.254 565.545 791.898 565.405 791.603 565.125C791.307 564.837 791.16 564.492 791.16 564.091C791.16 563.689 791.307 563.348 791.603 563.068C791.898 562.78 792.254 562.636 792.671 562.636C793.088 562.636 793.444 562.78 793.739 563.068C794.035 563.348 794.182 563.689 794.182 564.091C794.182 564.492 794.035 564.837 793.739 565.125C793.444 565.405 793.088 565.545 792.671 565.545ZM802.643 575.091V586H800.62V568.545H802.586V571.284H802.768C803.177 570.39 803.814 569.674 804.677 569.136C805.548 568.591 806.624 568.318 807.905 568.318C809.079 568.318 810.109 568.564 810.995 569.057C811.889 569.542 812.583 570.258 813.075 571.205C813.575 572.152 813.825 573.314 813.825 574.693V586H811.802V574.818C811.802 573.386 811.401 572.254 810.598 571.42C809.802 570.587 808.734 570.17 807.393 570.17C806.477 570.17 805.662 570.367 804.95 570.761C804.238 571.155 803.673 571.723 803.257 572.466C802.848 573.201 802.643 574.076 802.643 575.091ZM827.411 592.909C826.221 592.909 825.18 592.754 824.286 592.443C823.392 592.14 822.638 591.723 822.024 591.193C821.411 590.663 820.934 590.068 820.593 589.409L822.252 588.318C822.502 588.758 822.835 589.189 823.252 589.614C823.676 590.038 824.225 590.39 824.899 590.67C825.581 590.951 826.418 591.091 827.411 591.091C828.956 591.091 830.202 590.705 831.149 589.932C832.104 589.159 832.581 587.958 832.581 586.33V582.398H832.399C832.165 582.928 831.827 583.458 831.388 583.989C830.949 584.511 830.373 584.947 829.661 585.295C828.956 585.644 828.081 585.818 827.036 585.818C825.642 585.818 824.403 585.473 823.32 584.784C822.244 584.095 821.396 583.11 820.774 581.83C820.161 580.542 819.854 579.008 819.854 577.227C819.854 575.462 820.153 573.909 820.752 572.568C821.358 571.227 822.202 570.182 823.286 569.432C824.369 568.682 825.63 568.307 827.07 568.307C828.138 568.307 829.024 568.496 829.729 568.875C830.434 569.246 830.998 569.708 831.422 570.261C831.854 570.814 832.191 571.352 832.434 571.875H832.638V568.545H834.615V586.455C834.615 587.932 834.301 589.148 833.672 590.102C833.043 591.057 832.187 591.761 831.104 592.216C830.021 592.678 828.79 592.909 827.411 592.909ZM827.274 583.966C828.396 583.966 829.354 583.697 830.149 583.159C830.945 582.614 831.555 581.833 831.979 580.818C832.403 579.803 832.615 578.595 832.615 577.193C832.615 575.83 832.407 574.621 831.99 573.568C831.574 572.508 830.968 571.674 830.172 571.068C829.384 570.455 828.418 570.148 827.274 570.148C826.108 570.148 825.123 570.462 824.32 571.091C823.517 571.72 822.911 572.568 822.502 573.636C822.093 574.697 821.888 575.883 821.888 577.193C821.888 578.527 822.096 579.705 822.513 580.727C822.93 581.742 823.54 582.538 824.343 583.114C825.146 583.682 826.123 583.966 827.274 583.966ZM852.661 579.33V568.545H854.684V586H852.661V583.102H852.502C852.093 583.996 851.445 584.742 850.559 585.341C849.673 585.932 848.589 586.227 847.309 586.227C846.195 586.227 845.207 585.985 844.343 585.5C843.48 585.008 842.802 584.288 842.309 583.341C841.817 582.394 841.57 581.231 841.57 579.852V568.545H843.593V579.727C843.593 581.091 843.995 582.189 844.798 583.023C845.601 583.848 846.631 584.261 847.889 584.261C848.677 584.261 849.434 584.072 850.161 583.693C850.889 583.314 851.487 582.761 851.957 582.034C852.427 581.299 852.661 580.398 852.661 579.33ZM861.662 586V568.545H863.696V586H861.662ZM862.696 565.545C862.279 565.545 861.923 565.405 861.628 565.125C861.332 564.837 861.185 564.492 861.185 564.091C861.185 563.689 861.332 563.348 861.628 563.068C861.923 562.78 862.279 562.636 862.696 562.636C863.113 562.636 863.469 562.78 863.764 563.068C864.06 563.348 864.207 563.689 864.207 564.091C864.207 564.492 864.06 564.837 863.764 565.125C863.469 565.405 863.113 565.545 862.696 565.545ZM882.373 572.375L880.52 572.898C880.339 572.375 880.081 571.902 879.748 571.477C879.414 571.053 878.979 570.716 878.441 570.466C877.911 570.216 877.252 570.091 876.464 570.091C875.282 570.091 874.312 570.371 873.555 570.932C872.797 571.492 872.418 572.216 872.418 573.102C872.418 573.852 872.676 574.462 873.191 574.932C873.714 575.394 874.517 575.761 875.6 576.034L878.236 576.682C879.698 577.038 880.793 577.602 881.52 578.375C882.255 579.148 882.623 580.117 882.623 581.284C882.623 582.269 882.35 583.144 881.805 583.909C881.259 584.674 880.498 585.277 879.52 585.716C878.551 586.148 877.426 586.364 876.145 586.364C874.441 586.364 873.036 585.981 871.93 585.216C870.823 584.443 870.115 583.33 869.805 581.875L871.748 581.398C871.998 582.436 872.486 583.22 873.214 583.75C873.948 584.28 874.914 584.545 876.111 584.545C877.452 584.545 878.524 584.246 879.327 583.648C880.13 583.042 880.532 582.284 880.532 581.375C880.532 580.67 880.297 580.08 879.827 579.602C879.358 579.117 878.645 578.761 877.691 578.534L874.839 577.852C873.323 577.489 872.202 576.913 871.475 576.125C870.748 575.337 870.384 574.36 870.384 573.193C870.384 572.231 870.645 571.386 871.168 570.659C871.691 569.924 872.411 569.348 873.327 568.932C874.244 568.515 875.289 568.307 876.464 568.307C878.062 568.307 879.339 568.67 880.293 569.398C881.255 570.117 881.948 571.11 882.373 572.375ZM895.527 568.545V570.307H887.197V568.545H895.527ZM889.799 564.364H891.834V581.443C891.834 582.17 891.959 582.742 892.209 583.159C892.459 583.568 892.784 583.86 893.186 584.034C893.587 584.201 894.015 584.284 894.47 584.284C894.735 584.284 894.962 584.269 895.152 584.239C895.341 584.201 895.508 584.163 895.652 584.125L896.084 585.955C895.887 586.03 895.644 586.098 895.356 586.159C895.068 586.227 894.712 586.261 894.288 586.261C893.546 586.261 892.83 586.098 892.14 585.773C891.459 585.447 890.898 584.962 890.459 584.318C890.019 583.674 889.799 582.875 889.799 581.92V564.364ZM901.743 586V568.545H903.777V586H901.743ZM902.777 565.545C902.361 565.545 902.005 565.405 901.709 565.125C901.414 564.837 901.266 564.492 901.266 564.091C901.266 563.689 901.414 563.348 901.709 563.068C902.005 562.78 902.361 562.636 902.777 562.636C903.194 562.636 903.55 562.78 903.845 563.068C904.141 563.348 904.289 563.689 904.289 564.091C904.289 564.492 904.141 564.837 903.845 565.125C903.55 565.405 903.194 565.545 902.777 565.545ZM917.545 586.364C915.984 586.364 914.624 585.973 913.465 585.193C912.314 584.413 911.42 583.345 910.784 581.989C910.147 580.633 909.829 579.087 909.829 577.352C909.829 575.602 910.151 574.045 910.795 572.682C911.446 571.318 912.348 570.25 913.499 569.477C914.651 568.697 915.988 568.307 917.511 568.307C918.677 568.307 919.734 568.534 920.681 568.989C921.628 569.436 922.409 570.068 923.022 570.886C923.643 571.697 924.034 572.644 924.193 573.727H922.147C921.935 572.742 921.424 571.902 920.613 571.205C919.81 570.5 918.787 570.148 917.545 570.148C916.431 570.148 915.446 570.451 914.59 571.057C913.734 571.655 913.064 572.492 912.579 573.568C912.102 574.636 911.863 575.875 911.863 577.284C911.863 578.701 912.098 579.955 912.568 581.045C913.037 582.129 913.696 582.977 914.545 583.591C915.401 584.205 916.401 584.511 917.545 584.511C918.318 584.511 919.022 584.367 919.659 584.08C920.302 583.784 920.84 583.367 921.272 582.83C921.712 582.292 922.007 581.652 922.159 580.909H924.204C924.052 581.962 923.677 582.902 923.079 583.727C922.488 584.545 921.719 585.189 920.772 585.659C919.833 586.129 918.757 586.364 917.545 586.364ZM959.285 562.727V586H957.216L943.466 566.511H943.285V586H941.16V562.727H943.216L957.012 582.239H957.194V562.727H959.285ZM973.709 586.364C972.08 586.364 970.671 585.985 969.481 585.227C968.292 584.462 967.371 583.405 966.72 582.057C966.076 580.701 965.754 579.14 965.754 577.375C965.754 575.617 966.076 574.057 966.72 572.693C967.371 571.322 968.269 570.25 969.413 569.477C970.565 568.697 971.894 568.307 973.402 568.307C974.349 568.307 975.262 568.481 976.14 568.83C977.019 569.17 977.807 569.697 978.504 570.409C979.209 571.114 979.765 572.004 980.174 573.08C980.584 574.148 980.788 575.413 980.788 576.875V577.875H967.152V576.091H978.72C978.72 574.97 978.493 573.962 978.038 573.068C977.591 572.167 976.966 571.455 976.163 570.932C975.368 570.409 974.447 570.148 973.402 570.148C972.296 570.148 971.322 570.443 970.481 571.034C969.64 571.625 968.981 572.405 968.504 573.375C968.034 574.345 967.796 575.405 967.788 576.557V577.625C967.788 579.011 968.027 580.223 968.504 581.261C968.989 582.292 969.674 583.091 970.561 583.659C971.447 584.227 972.496 584.511 973.709 584.511C974.534 584.511 975.258 584.383 975.879 584.125C976.508 583.867 977.034 583.523 977.459 583.091C977.89 582.652 978.216 582.17 978.436 581.648L980.356 582.273C980.091 583.008 979.656 583.686 979.049 584.307C978.451 584.928 977.701 585.428 976.799 585.807C975.906 586.178 974.875 586.364 973.709 586.364ZM993.72 568.545V570.307H985.391V568.545H993.72ZM987.993 564.364H990.027V581.443C990.027 582.17 990.152 582.742 990.402 583.159C990.652 583.568 990.978 583.86 991.38 584.034C991.781 584.201 992.209 584.284 992.664 584.284C992.929 584.284 993.156 584.269 993.345 584.239C993.535 584.201 993.702 584.163 993.845 584.125L994.277 585.955C994.08 586.03 993.838 586.098 993.55 586.159C993.262 586.227 992.906 586.261 992.482 586.261C991.739 586.261 991.023 586.098 990.334 585.773C989.652 585.447 989.092 584.962 988.652 584.318C988.213 583.674 987.993 582.875 987.993 581.92V564.364ZM1003.79 586L998.516 568.545H1000.65L1004.79 582.943H1004.94L1009.06 568.545H1011.21L1015.3 582.909H1015.46L1019.6 568.545H1021.73L1016.46 586H1014.37L1010.23 571.693H1010.02L1005.88 586H1003.79ZM1033.45 586.364C1031.95 586.364 1030.61 585.981 1029.45 585.216C1028.3 584.451 1027.4 583.394 1026.75 582.045C1026.1 580.689 1025.77 579.125 1025.77 577.352C1025.77 575.564 1026.1 573.992 1026.75 572.636C1027.4 571.273 1028.3 570.212 1029.45 569.455C1030.61 568.689 1031.95 568.307 1033.45 568.307C1034.96 568.307 1036.29 568.689 1037.44 569.455C1038.59 570.22 1039.5 571.28 1040.15 572.636C1040.81 573.992 1041.14 575.564 1041.14 577.352C1041.14 579.125 1040.81 580.689 1040.16 582.045C1039.51 583.394 1038.6 584.451 1037.44 585.216C1036.29 585.981 1034.96 586.364 1033.45 586.364ZM1033.45 584.511C1034.67 584.511 1035.69 584.186 1036.53 583.534C1037.38 582.883 1038.01 582.015 1038.44 580.932C1038.88 579.848 1039.1 578.655 1039.1 577.352C1039.1 576.049 1038.88 574.852 1038.44 573.761C1038.01 572.67 1037.38 571.795 1036.53 571.136C1035.69 570.477 1034.67 570.148 1033.45 570.148C1032.25 570.148 1031.22 570.477 1030.38 571.136C1029.53 571.795 1028.89 572.67 1028.45 573.761C1028.02 574.852 1027.81 576.049 1027.81 577.352C1027.81 578.655 1028.02 579.848 1028.45 580.932C1028.89 582.015 1029.53 582.883 1030.38 583.534C1031.22 584.186 1032.24 584.511 1033.45 584.511ZM1047.18 586V568.545H1049.14V571.227H1049.29C1049.64 570.348 1050.24 569.64 1051.11 569.102C1051.98 568.557 1052.96 568.284 1054.06 568.284C1054.23 568.284 1054.42 568.288 1054.62 568.295C1054.82 568.303 1054.99 568.311 1055.13 568.318V570.375C1055.04 570.36 1054.88 570.337 1054.65 570.307C1054.43 570.277 1054.18 570.261 1053.92 570.261C1053.01 570.261 1052.2 570.455 1051.48 570.841C1050.78 571.22 1050.22 571.746 1049.81 572.42C1049.4 573.095 1049.2 573.864 1049.2 574.727V586H1047.18ZM1062.02 579.409L1062 576.761H1062.46L1070.64 568.545H1073.19L1065.11 576.636L1064.93 576.67L1062.02 579.409ZM1060.18 586V562.727H1062.21V586H1060.18ZM1071.06 586L1063.97 577.034L1065.42 575.636L1073.65 586H1071.06Z" fill="black"/>
</g>
<defs>
<radialGradient id="paint0_radial_3_2" cx="0" cy="0" r="1" gradientTransform="matrix(-408 362.723 -414.327 -408.353 1019 83.6834)" gradientUnits="userSpaceOnUse">
<stop stop-color="#31B178"/>
<stop offset="1" stop-color="#114541"/>
</radialGradient>
<clipPath id="clip0_3_2">
<rect width="1568" height="606" fill="white"/>
</clipPath>
</defs>
</svg>
